<!-- icon666.com - MILLIONS vector ICONS FREE --><svg id="Layer_1" enable-background="new 0 0 53 53" viewBox="0 0 53 53" xmlns="http://www.w3.org/2000/svg"><g id="_x37_5"><g><g><g><g><path d="m32.0764236 50.6077652h-16.5681457c2.2155361-1.49646 3.566267-3.0609436 3.9355335-4.6837349.1651783-.6511078.1554527-1.3216095-.019455-2.0018387h8.726202c-.1749058.6802292-.1846333 1.3507309-.0193939 2.0018387.3692666 1.6227913 1.7296658 3.1872749 3.9452591 4.6837349z" fill="#deddff"></path></g></g><g><g><path d="m28.1311646 45.9240303h-3.286253c-1.9166412 0-3.7470913.8288193-4.966217 2.3077545-.6671314.8093071-1.5819073 1.6017456-2.7281742 2.3759804h-1.6422424c2.2155361-1.49646 3.566267-3.0609436 3.9355335-4.6837349.1651783-.6511078.1554527-1.3216095-.019455-2.0018387h8.726202c-.1749058.6802292-.1846333 1.3507309-.0193939 2.0018387z" fill="#c6c6f7"></path></g></g><g><g><path d="m44.8614197 15.4898481v25.2851181c0 2.3066444-1.8664436 4.1730881-4.1730881 4.1730881h-34.0538712c-2.3066444 0-4.1730881-1.8664436-4.1730881-4.1730881v-25.2851181c0-2.3066444 1.8664436-4.1730881 4.1730881-4.1730881h34.0538712c2.3066444.0000001 4.1730881 1.8664437 4.1730881 4.1730881z" fill="#5b5e8b"></path></g></g><g><g><path d="m12.6884918 44.9492569h-6.0483441c-2.306644 0-4.1819005-1.8752556-4.1819005-4.1819v-25.2762518c0-2.3066444 1.8752565-4.181901 4.1819005-4.181901h6.0483441c-2.3066435 0-4.1730881 1.8752565-4.1730881 4.181901v25.2762527c0 2.3066435 1.8664446 4.1818991 4.1730881 4.1818991z" fill="#312e4b"></path></g></g><g><g><path d="m40.978878 16.9249039v20.4605446c0 .9596062-.7747574 1.7343636-1.725605 1.7343636-32.7942467 0-31.2491455.0057526-31.3510342-.0088158-.8715873-.0880165-1.5495124-.8275757-1.5495124-1.7255478v-20.4605446c0-.9507933.774756-1.7255497 1.7256031-1.7255497h31.1749435c.9508476 0 1.725605.7747564 1.725605 1.7255497z" fill="#deddff"></path></g></g><g><g><path d="m9.7391729 39.1122017h-1.8400597c-.8715873-.0880203-1.5495124-.8275261-1.5495124-1.7255516v-20.4604893c0-.9508467.774756-1.7256031 1.7256031-1.7256031h1.663969c-.9772844 0-1.7784252.7923813-1.7784252 1.7872372v20.3460331c0 .9772339.8011408 1.7783737 1.7784252 1.7783737z" fill="#c6c6f7"></path></g></g><g><g><circle cx="23.792" cy="42.114" fill="#deddff" r="1.257"></circle></g></g></g></g><g><g><g><g><g><g><path d="m14.6341953 26.2848186c.290494 0 .5282192.2376709.5282192.5282192 0 .2905464-.2377253.5282173-.5282192.5282173h-2.711647c-.2905474 0-.5282726-.2376709-.5282726-.5282173 0-.2905483.2377253-.5282192.5282726-.5282192z" fill="#e83d62"></path></g></g><g><g><path d="m16.4830151 36.2597122c0 .2905502-.2377262.5282745-.5282192.5282745h-4.0322475c-.2905474 0-.5282726-.2377243-.5282726-.5282745 0-.290493.2377253-.5282173.5282726-.5282173h4.0322475c.2904929 0 .5282192.2377243.5282192.5282173z" fill="#e83d62"></path></g></g><g><g><path d="m14.9071178 17.8945808h-5.5817604c-.2905474 0-.5282183-.2377262-.5282183-.5282192 0-.2905464.2376709-.5282726.5282183-.5282726h5.5817604c.290493 0 .5282183.2377262.5282183.5282726 0 .290493-.2377252.5282192-.5282183.5282192z" fill="#e83d62"></path></g></g><g><g><path d="m20.3919926 31.540781c0 .2905483-.2377243.5282192-.5282173.5282192h-2.0689735c-.2905464 0-.5282173-.2376709-.5282173-.5282192 0-.2905464.2376709-.5282173.5282173-.5282173h2.0689735c.290493 0 .5282173.2376709.5282173.5282173z" fill="#e83d62"></path></g></g></g></g></g><g><g><g><g><g><path d="m11.3942757 22.0941048c0-.2905464.2377253-.5282707.5282726-.5282707h2.711647c.290494 0 .5282192.2377243.5282192.5282707 0 .2904949-.2377253.5282192-.5282192.5282192h-2.711647c-.2905474 0-.5282726-.2377243-.5282726-.5282192z" fill="#fcb73e"></path></g></g><g><g><path d="m16.4830151 31.540781c0 .2905483-.2377262.5282192-.5282192.5282192h-4.0322475c-.2905474 0-.5282726-.2376709-.5282726-.5282192 0-.2905464.2377253-.5282173.5282726-.5282173h4.0322475c.2904929 0 .5282192.2376709.5282192.5282173z" fill="#fcb73e"></path></g></g><g><g><path d="m22.2232399 24.9817905h-5.5377502c-.290493 0-.5282192-.2376728-.5282192-.5282192s.2377262-.5282726.5282192-.5282726h5.5377502c.290493 0 .5282192.2377262.5282192.5282726s-.2377262.5282192-.5282192.5282192z" fill="#fcb73e"></path></g></g><g><g><path d="m23.8871555 33.9002495c0 .2905464-.2376709.5282707-.5282173.5282707h-5.5113144c-.2905464 0-.5282192-.2377243-.5282192-.5282707 0-.2905502.2376728-.5282211.5282192-.5282211h5.5113144c.2905464 0 .5282173.2376708.5282173.5282211z" fill="#fcb73e"></path></g></g><g><g><path d="m31.3001633 27.3412552h-6.9375573c-.2993603 0-.5282726-.2376709-.5282726-.5282173 0-.2905483.2289124-.5282192.5282726-.5282192h6.9375572c.290493 0 .5282192.2376709.5282192.5282192.0000001.2905464-.2377261.5282173-.5282191.5282173z" fill="#fcb73e"></path></g></g><g><g><path d="m34.0998306 36.2597122c0 .2905502-.2377281.5282745-.5282745.5282745h-3.8913517c-.2993069 0-.5282192-.2377243-.5282192-.5282745 0-.290493.2289124-.5282173.5282192-.5282173h3.8913517c.2905464 0 .5282745.2377243.5282745.5282173z" fill="#fcb73e"></path></g></g><g><g><path d="m25.7095909 22.0941048c0-.2905464.2377243-.5282707.5282726-.5282707h4.0234337c.2904949 0 .5282192.2377243.5282192.5282707 0 .2904949-.2377243.5282192-.5282192.5282192h-4.0234337c-.2905483 0-.5282726-.2377243-.5282726-.5282192z" fill="#fcb73e"></path></g></g><g><g><path d="m38.2905426 31.540781c0 .2905483-.2377243.5282192-.5282707.5282192h-4.032196c-.2905464 0-.5282707-.2376709-.5282707-.5282192 0-.2905464.2377243-.5282173.5282707-.5282173h4.032196c.2905464 0 .5282707.2376709.5282707.5282173z" fill="#fcb73e"></path></g></g></g></g><g><g><g><g><path d="m38.5282135 26.8130379c0 .2905464-.2376709.5282173-.5282173.5282173h-4.0322495c-.2905464 0-.5282173-.2376709-.5282173-.5282173 0-.2905483.2376709-.5282192.5282173-.5282192h4.0322495c.2905464-.0000001.5282173.2376708.5282173.5282192z" fill="#46cc6b"></path></g></g><g><g><path d="m11.3942757 24.4535713c0-.2905464.2377253-.5282726.5282726-.5282726h2.711647c.290494 0 .5282192.2377262.5282192.5282726s-.2377253.5282192-.5282192.5282192h-2.711647c-.2905474 0-.5282726-.2376728-.5282726-.5282192z" fill="#46cc6b"></path></g></g><g><g><path d="m24.362606 23.9252987h4.0234356c.290493 0 .5282173.2377262.5282173.5282726s-.2377243.5282192-.5282173.5282192h-4.0234356c-.2993603 0-.5282726-.2376728-.5282726-.5282192s.2289124-.5282726.5282726-.5282726z" fill="#46cc6b"></path></g></g><g><g><path d="m23.7023067 22.622324h-6.7967167c-.2904949 0-.5282192-.2377243-.5282192-.5282192 0-.2905464.2377243-.5282707.5282192-.5282707h6.7967167c.290493 0 .5282173.2377243.5282173.5282707.0000001.2904949-.2377242.5282192-.5282173.5282192z" fill="#46cc6b"></path></g></g><g><g><path d="m29.7682762 33.9002495c0 .2905464-.2377262.5282707-.5282726.5282707h-3.8913536c-.2905464 0-.5282726-.2377243-.5282726-.5282707 0-.2905502.2377262-.5282211.5282726-.5282211h3.8913536c.2905464 0 .5282726.2376708.5282726.5282211z" fill="#46cc6b"></path></g></g><g><g><path d="m16.4830151 33.9002495c0 .2905464-.2377262.5282707-.5282192.5282707h-4.0322475c-.2905474 0-.5282726-.2377243-.5282726-.5282707 0-.2905502.2377253-.5282211.5282726-.5282211h4.0322475c.2904929 0 .5282192.2376708.5282192.5282211z" fill="#46cc6b"></path></g></g><g><g><path d="m32.603138 31.540781c0 .2905483-.2377243.5282192-.5282173.5282192h-10.450346c-.2905464 0-.5282726-.2376709-.5282726-.5282192 0-.2905464.2377262-.5282173.5282726-.5282173h10.450346c.290493 0 .5282173.2376709.5282173.5282173z" fill="#46cc6b"></path></g></g></g></g></g><g><g><g><g><path d="m8.7971392 19.7258282c0-.2905483.2376709-.5282726.5282183-.5282726h7.8355827c.290493 0 .5282173.2377243.5282173.5282726 0 .2905464-.2377243.5282173-.5282173.5282173h-7.8355828c-.2905473 0-.5282182-.2376709-.5282182-.5282173z" fill="#65b9ff"></path></g></g><g><g><path d="m22.7514591 26.8130379c0 .2905464-.2377262.5282173-.5282192.5282173h-5.5377502c-.290493 0-.5282192-.2376709-.5282192-.5282173 0-.2905483.2377262-.5282192.5282192-.5282192h5.5377502c.290493-.0000001.5282192.2376708.5282192.5282192z" fill="#65b9ff"></path></g></g><g><g><path d="m17.6891575 29.1725025c0 .2993603-.2377243.5370312-.5282173.5370312h-7.8355828c-.2905474 0-.5282183-.2376709-.5282183-.5370312 0-.2905464.2376709-.5282173.5282183-.5282173h7.8355827c.2904931 0 .5282174.2376709.5282174.5282173z" fill="#65b9ff"></path></g></g><g><g><path d="m28.3332195 36.2597122c0 .2905502-.2377262.5282745-.5282726.5282745h-9.9573231c-.2905464 0-.5282192-.2377243-.5282192-.5282745 0-.290493.2376728-.5282173.5282192-.5282173h9.9573231c.2905464 0 .5282726.2377243.5282726.5282173z" fill="#65b9ff"></path></g></g></g></g></g><g><g><path d="m50.5311623 11.113575c.1438789 3.0209436-1.1892014 5.7350464-3.3374443 7.4901085-1.3906212 1.1412601-3.1264839 1.8796825-5.0253639 2.0427036-.1342812.0095997-.2589607.0767403-.3548431.172678-1.4673615 1.4577026-3.1936226 1.755003-4.0759239 1.8030033-.2206192.0095406-.3452415-.249361-.2110176-.4219818.4891205-.6233997.6713371-1.1892586.7001381-1.6687794.0095406-.2493019-.1438789-.4699211-.3740387-.5658016-3.289505-1.3810215-5.6008263-4.632185-5.6008263-8.4300089 0-5.130847 4.2390022-9.2835112 9.4177895-9.1396313 2.5126839.0671399 4.8144073 1.2084012 6.4351883 2.9730041 1.419361 1.5441006 2.3304633 3.5484631 2.4263419 5.7447055z" fill="#e83d62"></path></g></g><g><g><path d="m40.0761681 20.5313072c-.028801.4795208-.2110214 1.0453796-.7096825 1.6687794-.028801.0383415-.0480003.0766811-.0575409.1246223-.6138.2014198-1.1700592.2781601-1.5632401.2973595-.2206192.0095406-.3548431-.249361-.2110214-.4219818.4891205-.6233997.6713409-1.1892586.7001419-1.6687794.0095406-.2493019-.1534805-.4699211-.3836403-.5658016-3.289505-1.3810215-5.5912285-4.632185-5.5912285-8.4300089 0-5.130847 4.239006-9.2835112 9.4081917-9.1396313.2206192.0095997.450779.0191996.6713409.0479403-4.6225853.4507799-8.2381287 4.354084-8.2381287 9.091691 0 3.7978239 2.3016624 7.0489874 5.5911674 8.4300089.2301599.0958805.3932382.3164997.3836405.5658016z" fill="#ce2955"></path></g></g><g><g><g><path d="m40.5811234 9.7445383h-.5898781c-.1126595 0-.2054596.099432-.2054596.2120924v3.5524988c0 .1855555-.1457901.3313866-.3313866.3313866h-2.1606483c-.1855545 0-.3313866-.1458311-.3313866-.3313866v-3.5524988c0-.1126604-.0927582-.2120924-.2054596-.2120924h-.5898361c-.444088 0-.7091751-.4838123-.4705849-.8549643l2.2136421-3.3734961c.2187271-.331387.7091713-.331387.9278984 0l2.2136841 3.3734961c.2385864.371152-.0265388.8549643-.4705848.8549643z" fill="#deddff"></path></g></g><g><g><path d="m42.212471 12.8889818h.5898781c.1126595 0 .2054596-.0994329.2054596-.2120924v-3.5524988c0-.1855564.1457901-.3313875.3313866-.3313875h2.1606483c.1855583 0 .3313866.1458311.3313866.3313875v3.5524988c0 .1126595.0927582.2120924.2054596.2120924h.5898361c.444088 0 .7091751.4838114.4705849.8549633l-2.2136421 3.3734961c-.2187271.3313866-.7091713.3313866-.9278984 0l-2.2136841-3.3734961c-.2385865-.3711519.0265388-.8549633.4705848-.8549633z" fill="#deddff"></path></g></g></g></g></svg>